<svg width="126" height="27" viewBox="0 0 126 27" fill="none" xmlns="http://www.w3.org/2000/svg">
<mask id="path-1-inside-1_840_19145" fill="white">
<path d="M0 0H8.38082C9.86264 0 11.2838 0.588651 12.3316 1.63646C13.3794 2.68426 13.968 4.10539 13.968 5.58721V25.1425C13.968 24.0311 13.5265 22.9652 12.7407 22.1794C11.9548 21.3935 10.889 20.952 9.77762 20.952H0V0Z"/>
<path d="M27.9361 0H19.5552C18.0734 0 16.6523 0.588651 15.6045 1.63646C14.5567 2.68426 13.968 4.10539 13.968 5.58721V25.1425C13.968 24.0311 14.4095 22.9652 15.1954 22.1794C15.9812 21.3935 17.0471 20.952 18.1584 20.952H27.9361V0Z"/>
</mask>
<path d="M27.468 5.58721C27.468 -1.86863 21.4239 -7.91279 13.968 -7.91279C6.51218 -7.91279 0.468026 -1.86863 0.468026 5.58721H27.468ZM0.468026 25.1425C0.468026 32.5983 6.51218 38.6425 13.968 38.6425C21.4239 38.6425 27.468 32.5983 27.468 25.1425H0.468026ZM0.468026 5.58721V25.1425H27.468V5.58721H0.468026ZM0 0V-27C-14.9117 -27 -27 -14.9117 -27 0L0 0ZM-13.032 5.58721C-13.032 20.4989 -0.943662 32.5872 13.968 32.5872C28.8797 32.5872 40.968 20.4989 40.968 5.58721H-13.032ZM-13.032 25.1425C-13.032 40.0541 -0.943662 52.1425 13.968 52.1425C28.8797 52.1425 40.968 40.0541 40.968 25.1425H-13.032ZM9.77762 20.952V-6.04796V20.952ZM0 20.952H-27C-27 35.8637 -14.9117 47.952 0 47.952L0 20.952ZM27.9361 0H54.9361C54.9361 -14.9117 42.8477 -27 27.9361 -27V0ZM19.5552 0V-27V0ZM18.1584 20.952V-6.04796V20.952ZM27.9361 20.952V47.952C42.8477 47.952 54.9361 35.8637 54.9361 20.952H27.9361ZM0 27H8.38082V-27H0V27ZM8.38082 27C2.70179 27 -2.74464 24.744 -6.76031 20.7283L31.4235 -17.4554C25.3122 -23.5667 17.0235 -27 8.38082 -27V27ZM-6.76031 20.7283C-10.776 16.7127 -13.032 11.2662 -13.032 5.58721H40.968C40.968 -3.05544 37.5347 -11.3441 31.4235 -17.4554L-6.76031 20.7283ZM40.968 25.1425C40.968 16.8703 37.6819 8.93685 31.8326 3.0875L-6.3512 41.2713C-10.6288 36.9936 -13.032 31.1919 -13.032 25.1425H40.968ZM31.8326 3.0875C25.9832 -2.76184 18.0498 -6.04796 9.77762 -6.04796V47.952C3.72814 47.952 -2.07357 45.5489 -6.3512 41.2713L31.8326 3.0875ZM9.77762 -6.04796H0V47.952H9.77762V-6.04796ZM27 20.952V0H-27V20.952H27ZM27.9361 -27H19.5552V27H27.9361V-27ZM19.5552 -27C10.9126 -27 2.62389 -23.5667 -3.4874 -17.4554L34.6964 20.7283C30.6807 24.744 25.2343 27 19.5552 27V-27ZM-3.4874 -17.4554C-9.5987 -11.3441 -13.032 -3.05544 -13.032 5.58721H40.968C40.968 11.2662 38.712 16.7127 34.6964 20.7283L-3.4874 -17.4554ZM40.968 25.1425C40.968 31.1919 38.5649 36.9936 34.2873 41.2713L-3.89652 3.0875C-9.74585 8.93684 -13.032 16.8702 -13.032 25.1425H40.968ZM34.2873 41.2713C30.0096 45.5489 24.2079 47.952 18.1584 47.952V-6.04796C9.88623 -6.04796 1.95282 -2.76184 -3.89652 3.0875L34.2873 41.2713ZM18.1584 47.952H27.9361V-6.04796H18.1584V47.952ZM54.9361 20.952V0H0.936052V20.952H54.9361Z" fill="#657BFF" mask="url(#path-1-inside-1_840_19145)"/>
<path d="M32.8651 21V2.09088H40.1037C41.4702 2.09088 42.6058 2.30632 43.5106 2.73719C44.4216 3.1619 45.1018 3.74358 45.5511 4.48222C46.0066 5.22085 46.2344 6.05797 46.2344 6.99358C46.2344 7.76299 46.0866 8.42161 45.7912 8.96943C45.4957 9.5111 45.0987 9.9512 44.6001 10.2897C44.1016 10.6283 43.5445 10.8714 42.929 11.0191V11.2038C43.5999 11.2407 44.2431 11.4469 44.8587 11.8224C45.4803 12.1917 45.9882 12.7149 46.3821 13.392C46.776 14.0691 46.973 14.8878 46.973 15.848C46.973 16.8267 46.736 17.7069 46.2621 18.4886C45.7881 19.2642 45.0741 19.8766 44.12 20.326C43.166 20.7753 41.9657 21 40.5192 21H32.8651ZM36.2905 18.1378H39.9744C41.2178 18.1378 42.1134 17.9008 42.6612 17.4268C43.2152 16.9467 43.4922 16.3312 43.4922 15.5802C43.4922 15.0201 43.3537 14.5154 43.0767 14.066C42.7997 13.6105 42.4058 13.2535 41.8949 12.995C41.384 12.7303 40.7746 12.598 40.0668 12.598H36.2905V18.1378ZM36.2905 10.1328H39.679C40.2699 10.1328 40.8023 10.0251 41.2763 9.80963C41.7502 9.58804 42.1226 9.2772 42.3935 8.8771C42.6704 8.47085 42.8089 7.99074 42.8089 7.43676C42.8089 6.70428 42.5504 6.10106 42.0334 5.6271C41.5225 5.15314 40.7623 4.91616 39.7528 4.91616H36.2905V10.1328Z" fill="#657BFF"/>
<path d="M61.2818 21L55.0588 12.7365H53.3784V21H49.9529V2.09088H53.3784V9.86503H54.237L60.9586 2.09088H65.1781L57.7086 10.7145L65.5012 21H61.2818Z" fill="#657BFF"/>
<path d="M68.7166 26.3182C68.2611 26.3182 67.8395 26.2812 67.4517 26.2074C67.0701 26.1397 66.7654 26.0596 66.5376 25.9673L67.3132 23.3636C67.7995 23.5052 68.2334 23.5729 68.6151 23.5667C68.9967 23.5606 69.3321 23.4406 69.6214 23.2066C69.9169 22.9789 70.1662 22.5973 70.3693 22.0618L70.6555 21.2954L65.5128 6.81815H69.0582L72.3267 17.5284H72.4744L75.7521 6.81815H79.3068L73.6285 22.7173C73.3639 23.4682 73.013 24.1115 72.576 24.647C72.139 25.1887 71.6035 25.6011 70.9695 25.8842C70.3416 26.1735 69.5907 26.3182 68.7166 26.3182Z" fill="#657BFF"/>
<path d="M81.6197 26.3182V6.81815H84.9066V9.16332H85.1005C85.2728 8.81863 85.516 8.45239 85.8299 8.0646C86.1438 7.67066 86.5685 7.3352 87.104 7.05821C87.6396 6.77507 88.3228 6.6335 89.1538 6.6335C90.2494 6.6335 91.2373 6.91356 92.1175 7.47369C93.0039 8.02767 93.7056 8.8494 94.2227 9.93889C94.7459 11.0222 95.0075 12.3518 95.0075 13.9275C95.0075 15.4848 94.752 16.8082 94.2411 17.8977C93.7302 18.9872 93.0347 19.8182 92.1545 20.3906C91.2743 20.963 90.2771 21.2493 89.163 21.2493C88.3505 21.2493 87.6765 21.1138 87.141 20.843C86.6055 20.5722 86.1746 20.2459 85.8484 19.8643C85.5283 19.4765 85.279 19.1103 85.1005 18.7656H84.962V26.3182H81.6197ZM84.8974 13.9091C84.8974 14.8262 85.0266 15.6295 85.2852 16.3189C85.5498 17.0083 85.9284 17.5468 86.4208 17.9346C86.9194 18.3163 87.5226 18.5071 88.2305 18.5071C88.9691 18.5071 89.5877 18.3101 90.0863 17.9162C90.5849 17.5161 90.9603 16.9713 91.2127 16.2819C91.4712 15.5864 91.6005 14.7954 91.6005 13.9091C91.6005 13.0289 91.4743 12.2471 91.2219 11.5639C90.9696 10.8807 90.5941 10.3451 90.0955 9.95736C89.5969 9.56957 88.9753 9.37568 88.2305 9.37568C87.5164 9.37568 86.9102 9.56342 86.4116 9.93889C85.913 10.3144 85.5344 10.8406 85.2759 11.5177C85.0235 12.1948 84.8974 12.9919 84.8974 13.9091Z" fill="#657BFF"/>
<path d="M104.056 21.277C102.64 21.277 101.424 20.9661 100.409 20.3444C99.3993 19.7227 98.6206 18.8641 98.0728 17.7684C97.5311 16.6666 97.2603 15.3986 97.2603 13.9645C97.2603 12.5241 97.5373 11.253 98.0913 10.1513C98.6452 9.0433 99.427 8.18155 100.436 7.56602C101.452 6.94434 102.652 6.6335 104.037 6.6335C105.188 6.6335 106.207 6.84585 107.093 7.27057C107.986 7.68913 108.697 8.28312 109.226 9.05253C109.756 9.81579 110.057 10.7083 110.131 11.7301H106.936C106.807 11.0468 106.499 10.4775 106.013 10.022C105.533 9.56034 104.89 9.32952 104.083 9.32952C103.4 9.32952 102.8 9.51418 102.283 9.88349C101.766 10.2467 101.363 10.7699 101.074 11.4531C100.79 12.1363 100.649 12.955 100.649 13.9091C100.649 14.8754 100.79 15.7064 101.074 16.402C101.357 17.0914 101.754 17.6238 102.265 17.9993C102.782 18.3686 103.388 18.5532 104.083 18.5532C104.576 18.5532 105.016 18.4609 105.404 18.2763C105.798 18.0854 106.127 17.8115 106.392 17.4545C106.656 17.0975 106.838 16.6636 106.936 16.1527H110.131C110.051 17.156 109.756 18.0454 109.245 18.821C108.734 19.5904 108.038 20.1936 107.158 20.6307C106.278 21.0615 105.244 21.277 104.056 21.277Z" fill="#657BFF"/>
<path d="M119.154 21.277C117.732 21.277 116.504 20.9815 115.47 20.3906C114.442 19.7935 113.651 18.9503 113.097 17.8608C112.543 16.7651 112.266 15.4756 112.266 13.9922C112.266 12.5334 112.543 11.253 113.097 10.1513C113.657 9.0433 114.439 8.18155 115.442 7.56602C116.446 6.94434 117.624 6.6335 118.979 6.6335C119.853 6.6335 120.677 6.77507 121.453 7.05821C122.235 7.3352 122.924 7.76607 123.521 8.35082C124.124 8.93558 124.598 9.68037 124.943 10.5852C125.288 11.4839 125.46 12.5549 125.46 13.7983V14.8231H113.836V12.5703H122.256C122.25 11.9301 122.112 11.3608 121.841 10.8622C121.57 10.3575 121.191 9.96044 120.705 9.67114C120.225 9.38184 119.665 9.23719 119.025 9.23719C118.341 9.23719 117.741 9.40338 117.224 9.73577C116.707 10.062 116.304 10.4929 116.015 11.0284C115.732 11.5577 115.587 12.1394 115.581 12.7734V14.74C115.581 15.5648 115.732 16.2727 116.033 16.8636C116.335 17.4484 116.756 17.8977 117.298 18.2116C117.84 18.5194 118.474 18.6733 119.2 18.6733C119.686 18.6733 120.126 18.6056 120.52 18.4701C120.914 18.3286 121.256 18.1224 121.545 17.8515C121.835 17.5807 122.053 17.2452 122.201 16.8451L125.322 17.196C125.125 18.0208 124.749 18.741 124.195 19.3565C123.647 19.9659 122.946 20.4398 122.09 20.7784C121.234 21.1108 120.256 21.277 119.154 21.277Z" fill="#657BFF"/>
<mask id="path-4-inside-2_840_19145" fill="white">
<path d="M2.52109 2.35071H9.38927C10.6036 2.35071 11.7683 2.81971 12.627 3.65455C13.4856 4.48939 13.9681 5.62167 13.9681 6.80231V22.3829C13.9681 21.4974 13.6063 20.6482 12.9622 20.0221C12.3182 19.396 11.4447 19.0442 10.534 19.0442H2.52109V2.35071Z"/>
<path d="M25.415 2.35071H18.5468C17.3325 2.35071 16.1678 2.81971 15.3092 3.65455C14.4505 4.48939 13.9681 5.62167 13.9681 6.80231V22.3829C13.9681 21.4974 14.3299 20.6482 14.9739 20.0221C15.6179 19.396 16.4914 19.0442 17.4021 19.0442H25.415V2.35071Z"/>
</mask>
<path d="M25.9681 6.80231C25.9681 0.17489 20.5955 -5.19769 13.9681 -5.19769C7.34064 -5.19769 1.96806 0.17489 1.96806 6.80231H25.9681ZM1.96806 22.3829C1.96806 29.0103 7.34064 34.3829 13.9681 34.3829C20.5955 34.3829 25.9681 29.0103 25.9681 22.3829H1.96806ZM1.96806 6.80231V22.3829H25.9681V6.80231H1.96806ZM2.52109 2.35071V-21.6493C-10.7337 -21.6493 -21.4789 -10.9041 -21.4789 2.35071L2.52109 2.35071ZM-10.0319 6.80231C-10.0319 20.0571 0.713222 30.8023 13.9681 30.8023C27.2229 30.8023 37.9681 20.0571 37.9681 6.80231H-10.0319ZM-10.0319 22.3829C-10.0319 35.6377 0.713222 46.3829 13.9681 46.3829C27.2229 46.3829 37.9681 35.6377 37.9681 22.3829H-10.0319ZM10.534 19.0442V-4.95579V19.0442ZM2.52109 19.0442H-21.4789C-21.4789 32.299 -10.7337 43.0442 2.52109 43.0442L2.52109 19.0442ZM25.415 2.35071H49.415C49.415 -10.9041 38.6699 -21.6493 25.415 -21.6493V2.35071ZM18.5468 2.35071V-21.6493V2.35071ZM17.4021 19.0442V-4.95579V19.0442ZM25.415 19.0442V43.0442C38.6699 43.0442 49.415 32.299 49.415 19.0442H25.415ZM2.52109 26.3507H9.38927V-21.6493H2.52109V26.3507ZM9.38927 26.3507C4.45318 26.3507 -0.412157 24.4507 -4.10292 20.8624L29.3568 -13.5533C23.9487 -18.8112 16.7541 -21.6493 9.38927 -21.6493V26.3507ZM-4.10292 20.8624C-7.81666 17.2518 -10.0319 12.2085 -10.0319 6.80231H37.9681C37.9681 -0.965175 34.788 -8.27307 29.3568 -13.5533L-4.10292 20.8624ZM37.9681 22.3829C37.9681 14.9106 34.9086 7.88576 29.6921 2.81421L-3.76765 37.23C-7.69607 33.4107 -10.0319 28.0843 -10.0319 22.3829H37.9681ZM29.6921 2.81421C24.4986 -2.23501 17.5952 -4.95579 10.534 -4.95579V43.0442C5.29431 43.0442 0.137804 41.0269 -3.76765 37.23L29.6921 2.81421ZM10.534 -4.95579H2.52109V43.0442H10.534V-4.95579ZM26.5211 19.0442V2.35071H-21.4789V19.0442H26.5211ZM25.415 -21.6493H18.5468V26.3507H25.415V-21.6493ZM18.5468 -21.6493C11.182 -21.6493 3.98741 -18.8112 -1.42073 -13.5533L32.039 20.8624C28.3483 24.4507 23.4829 26.3507 18.5468 26.3507V-21.6493ZM-1.42073 -13.5533C-6.85185 -8.27307 -10.0319 -0.965175 -10.0319 6.80231H37.9681C37.9681 12.2085 35.7528 17.2518 32.039 20.8624L-1.42073 -13.5533ZM37.9681 22.3829C37.9681 28.0843 35.6322 33.4107 31.7038 37.23L-1.75601 2.81421C-6.97246 7.88576 -10.0319 14.9106 -10.0319 22.3829H37.9681ZM31.7038 37.23C27.7983 41.0269 22.6418 43.0442 17.4021 43.0442V-4.95579C10.3409 -4.95579 3.43748 -2.23501 -1.75601 2.81421L31.7038 37.23ZM17.4021 43.0442H25.415V-4.95579H17.4021V43.0442ZM49.415 19.0442V2.35071H1.41502V19.0442H49.415Z" fill="#131313" mask="url(#path-4-inside-2_840_19145)"/>
<mask id="path-6-inside-3_840_19145" fill="white">
<path d="M8 14L5 10.1111L2 14V1.55556C2 1.143 2.09031 0.747335 2.25105 0.455612C2.4118 0.163888 2.62981 0 2.85714 0H7.14286C7.37019 0 7.5882 0.163888 7.74895 0.455612C7.90969 0.747335 8 1.143 8 1.55556V14Z"/>
</mask>
<path d="M8 14L-1.50139 21.3296C1.63521 25.3956 7.01136 27.0151 11.8719 25.3582C16.7325 23.7013 20 19.1352 20 14H8ZM5 10.1111L14.5014 2.78147C12.2293 -0.163811 8.71981 -1.88889 5 -1.88889C1.28019 -1.88889 -2.22931 -0.163811 -4.50139 2.78147L5 10.1111ZM2 14H-10C-10 19.1352 -6.73246 23.7013 -1.87191 25.3582C2.98864 27.0151 8.36479 25.3956 11.5014 21.3296L2 14ZM2.85714 0V-12V0ZM7.14286 0V-12V0ZM17.5014 6.67036L14.5014 2.78147L-4.50139 17.4408L-1.50139 21.3296L17.5014 6.67036ZM-4.50139 2.78147L-7.50139 6.67036L11.5014 21.3296L14.5014 17.4408L-4.50139 2.78147ZM14 14V1.55556H-10V14H14ZM14 1.55556C14 2.20717 13.9305 2.90269 13.7644 3.63048C13.6027 4.33894 13.3095 5.25171 12.7611 6.24687L-8.25901 -5.33565C-9.60406 -2.89463 -10 -0.405189 -10 1.55556H14ZM12.7611 6.24687C11.8985 7.81233 8.8679 12 2.85714 12V-12C-3.60828 -12 -7.07492 -7.48455 -8.25901 -5.33565L12.7611 6.24687ZM2.85714 12H7.14286V-12H2.85714V12ZM7.14286 12C1.13209 12 -1.89851 7.81232 -2.76111 6.24687L18.259 -5.33565C17.0749 -7.48455 13.6083 -12 7.14286 -12V12ZM-2.76111 6.24687C-3.30946 5.25171 -3.60269 4.33895 -3.76439 3.63049C-3.9305 2.90269 -4 2.20717 -4 1.55556H20C20 -0.405193 19.6041 -2.89463 18.259 -5.33565L-2.76111 6.24687ZM-4 1.55556V14H20V1.55556H-4Z" fill="#F8F9FC" mask="url(#path-6-inside-3_840_19145)"/>
<path d="M24.7221 22.2434L26.2686 25.3486M22.1445 17.0682L22.681 24.5648L24.6138 22.0261L27.8045 22.0129L22.1445 17.0682Z" stroke="#F8F9FC" stroke-linecap="round" stroke-linejoin="round"/>
</svg>
