<svg width="290" height="61" viewBox="0 0 290 61" fill="none" xmlns="http://www.w3.org/2000/svg">
<path d="M45.787 13.5H51.0739V34.9305H45.787V13.5ZM18.787 34.9305H13.5V13.5H18.787V34.9305Z" stroke="#657BFF" stroke-width="27" stroke-linecap="round" stroke-linejoin="round"/>
<path d="M75.9678 48.5412V4.83301H92.6998C95.8584 4.83301 98.4835 5.33099 100.575 6.32694C102.681 7.30867 104.253 8.65321 105.292 10.3606C106.344 12.0679 106.871 14.0029 106.871 16.1656C106.871 17.944 106.529 19.4664 105.846 20.7327C105.163 21.9848 104.246 23.0021 103.093 23.7846C101.941 24.5671 100.653 25.1291 99.2304 25.4706V25.8975C100.781 25.9828 102.268 26.4595 103.691 27.3274C105.128 28.181 106.302 29.3904 107.212 30.9555C108.123 32.5206 108.578 34.4129 108.578 36.6324C108.578 38.8947 108.03 40.9293 106.935 42.7362C105.839 44.5289 104.189 45.9446 101.984 46.9832C99.7782 48.0219 97.0038 48.5412 93.6602 48.5412H75.9678ZM83.8856 41.9252H92.401C95.2751 41.9252 97.3452 41.3774 98.6115 40.2819C99.892 39.1721 100.532 37.7493 100.532 36.0135C100.532 34.7188 100.212 33.5521 99.5719 32.5134C98.9317 31.4606 98.0211 30.6354 96.8401 30.0378C95.6592 29.426 94.2507 29.1201 92.6145 29.1201H83.8856V41.9252ZM83.8856 23.4218H91.7181C93.084 23.4218 94.3147 23.1728 95.4102 22.6748C96.5058 22.1626 97.3666 21.4441 97.9926 20.5193C98.6329 19.5803 98.953 18.4705 98.953 17.19C98.953 15.4968 98.3554 14.1025 97.1603 13.007C95.9794 11.9114 94.2222 11.3636 91.8888 11.3636H83.8856V23.4218Z" fill="#657BFF"/>
<path d="M141.653 48.5412L127.268 29.4402H123.384V48.5412H115.466V4.83301H123.384V22.8029H125.369L140.906 4.83301H150.659L133.393 24.7663L151.406 48.5412H141.653Z" fill="#657BFF"/>
<path d="M158.838 60.8341C157.785 60.8341 156.811 60.7488 155.915 60.578C155.032 60.4215 154.328 60.2366 153.802 60.0231L155.594 54.0047C156.718 54.332 157.721 54.4885 158.604 54.4743C159.486 54.46 160.261 54.1826 160.93 53.6419C161.613 53.1155 162.189 52.2334 162.659 50.9955L163.32 49.2241L151.433 15.7601H159.628L167.183 40.5167H167.524L175.101 15.7601H183.317L170.192 52.5108C169.58 54.2466 168.769 55.7334 167.759 56.9713C166.749 58.2233 165.511 59.1766 164.046 59.8311C162.595 60.4998 160.859 60.8341 158.838 60.8341Z" fill="#657BFF"/>
<path d="M188.664 60.8341V15.7601H196.261V21.1809H196.71C197.108 20.3841 197.67 19.5376 198.396 18.6412C199.121 17.7306 200.103 16.9552 201.341 16.3149C202.579 15.6605 204.158 15.3332 206.079 15.3332C208.611 15.3332 210.895 15.9806 212.929 17.2753C214.978 18.5558 216.6 20.4553 217.795 22.9736C219.005 25.4777 219.609 28.551 219.609 32.1933C219.609 35.793 219.019 38.852 217.838 41.3703C216.657 43.8887 215.049 45.8094 213.015 47.1326C210.98 48.4558 208.675 49.1174 206.1 49.1174C204.222 49.1174 202.664 48.8044 201.426 48.1784C200.188 47.5524 199.192 46.7983 198.438 45.9162C197.698 45.0198 197.122 44.1732 196.71 43.3765H196.389V60.8341H188.664ZM196.24 32.1506C196.24 34.2706 196.539 36.1273 197.136 37.7209C197.748 39.3144 198.623 40.5593 199.761 41.4557C200.914 42.3378 202.308 42.7789 203.944 42.7789C205.652 42.7789 207.082 42.3236 208.234 41.413C209.387 40.4882 210.255 39.229 210.838 37.6355C211.435 36.0277 211.734 34.1995 211.734 32.1506C211.734 30.116 211.443 28.3091 210.859 26.7298C210.276 25.1505 209.408 23.9127 208.256 23.0163C207.103 22.1199 205.666 21.6718 203.944 21.6718C202.294 21.6718 200.893 22.1057 199.74 22.9736C198.588 23.8415 197.713 25.058 197.115 26.6231C196.532 28.1882 196.24 30.0307 196.24 32.1506Z" fill="#657BFF"/>
<path d="M240.524 49.1815C237.252 49.1815 234.442 48.463 232.094 47.0259C229.761 45.5889 227.961 43.6041 226.695 41.0715C225.443 38.5247 224.817 35.5938 224.817 32.2787C224.817 28.9493 225.457 26.0113 226.738 23.4645C228.018 20.9035 229.825 18.9115 232.158 17.4887C234.506 16.0517 237.28 15.3332 240.482 15.3332C243.142 15.3332 245.497 15.8241 247.546 16.8058C249.609 17.7733 251.252 19.1463 252.476 20.9248C253.7 22.6891 254.397 24.7521 254.567 27.1139H247.183C246.884 25.5346 246.173 24.2186 245.049 23.1657C243.939 22.0986 242.452 21.5651 240.588 21.5651C239.009 21.5651 237.622 21.9919 236.427 22.8456C235.232 23.685 234.3 24.8944 233.631 26.4737C232.977 28.053 232.649 29.9453 232.649 32.1506C232.649 34.3844 232.977 36.3052 233.631 37.9129C234.285 39.5065 235.203 40.7372 236.384 41.6051C237.579 42.4588 238.981 42.8856 240.588 42.8856C241.727 42.8856 242.744 42.6722 243.64 42.2453C244.551 41.8043 245.312 41.1711 245.924 40.3459C246.536 39.5207 246.955 38.5176 247.183 37.3367H254.567C254.382 39.6559 253.7 41.7118 252.519 43.5045C251.338 45.283 249.73 46.6773 247.695 47.6875C245.661 48.6835 243.27 49.1815 240.524 49.1815Z" fill="#657BFF"/>
<path d="M275.424 49.1815C272.137 49.1815 269.299 48.4985 266.908 47.1326C264.532 45.7525 262.704 43.8033 261.423 41.285C260.143 38.7524 259.503 35.7716 259.503 32.3427C259.503 28.9707 260.143 26.0113 261.423 23.4645C262.718 20.9035 264.525 18.9115 266.844 17.4887C269.163 16.0517 271.888 15.3332 275.018 15.3332C277.039 15.3332 278.945 15.6605 280.738 16.3149C282.545 16.9552 284.138 17.9512 285.518 19.3028C286.913 20.6545 288.008 22.376 288.805 24.4676C289.602 26.5448 290 29.0205 290 31.8945V34.2635H263.131V29.0561H282.595C282.58 27.5764 282.26 26.2603 281.634 25.1078C281.008 23.9411 280.133 23.0234 279.009 22.3547C277.899 21.686 276.605 21.3516 275.125 21.3516C273.546 21.3516 272.158 21.7358 270.963 22.5041C269.768 23.2582 268.836 24.2541 268.168 25.492C267.513 26.7156 267.179 28.0601 267.164 29.5256V34.0714C267.164 35.9779 267.513 37.6142 268.21 38.98C268.907 40.3317 269.882 41.3703 271.134 42.096C272.386 42.8074 273.852 43.163 275.53 43.163C276.654 43.163 277.672 43.0065 278.582 42.6935C279.493 42.3663 280.283 41.8897 280.951 41.2636C281.62 40.6376 282.125 39.8622 282.467 38.9374L289.68 39.7483C289.225 41.6549 288.357 43.3196 287.076 44.7423C285.81 46.1509 284.188 47.2465 282.211 48.029C280.233 48.7973 277.971 49.1815 275.424 49.1815Z" fill="#657BFF"/>
<path d="M44.2867 17.4336H46.7463V32.0205H44.2867V17.4336ZM20.2867 32.0205H17.8271V17.4336H20.2867V32.0205Z" stroke="#131313" stroke-width="24" stroke-linecap="round" stroke-linejoin="round"/>
<path d="M12.492 6V17.4449C12.1852 17.3965 11.8729 17.3717 11.5575 17.3717C11.2422 17.3717 10.9298 17.3965 10.623 17.4449V6H12.492Z" stroke="#F8F9FC" stroke-width="12" stroke-linecap="round" stroke-linejoin="round"/>
<path d="M57.1446 51.4156L60.7195 58.593M51.1865 39.4531L52.4267 56.7812L56.8944 50.9132L64.2696 50.8827L51.1865 39.4531Z" stroke="#F8F9FC" stroke-linecap="round" stroke-linejoin="round"/>
</svg>
