<svg width="23" height="39" viewBox="0 0 23 39" fill="none" xmlns="http://www.w3.org/2000/svg">
<path d="M19.75 19.75V17.75C19.75 16.6891 19.3286 15.6717 18.5784 14.9216C17.8283 14.1714 16.8109 13.75 15.75 13.75H7.75C6.68913 13.75 5.67172 14.1714 4.92157 14.9216C4.17143 15.6717 3.75 16.6891 3.75 17.75V19.75M11.75 23.75C11.75 22.6891 11.3286 21.6717 10.5784 20.9216C9.82828 20.1714 8.81087 19.75 7.75 19.75H1.75V34.75H8.75C9.54565 34.75 10.3087 35.0661 10.8713 35.6287C11.4339 36.1913 11.75 36.9544 11.75 37.75M11.75 23.75V37.75M11.75 23.75C11.75 22.6891 12.1714 21.6717 12.9216 20.9216C13.6717 20.1714 14.6891 19.75 15.75 19.75H21.75V34.75H14.75C13.9544 34.75 13.1913 35.0661 12.6287 35.6287C12.0661 36.1913 11.75 36.9544 11.75 37.75M15.75 5.75C15.75 7.95914 13.9591 9.75 11.75 9.75C9.54086 9.75 7.75 7.95914 7.75 5.75C7.75 3.54086 9.54086 1.75 11.75 1.75C13.9591 1.75 15.75 3.54086 15.75 5.75Z" stroke="#101828" stroke-width="2" stroke-linecap="round" stroke-linejoin="round"/>
</svg>
