<svg width="22" height="38" viewBox="0 0 22 38" fill="none" xmlns="http://www.w3.org/2000/svg">
<path d="M19 19V17C19 15.9391 18.5786 14.9217 17.8284 14.1716C17.0783 13.4214 16.0609 13 15 13H7C5.93913 13 4.92172 13.4214 4.17157 14.1716C3.42143 14.9217 3 15.9391 3 17V19M19 19H3M19 19C20.1046 19 21 19.8954 21 21V31C21 32.1046 20.1046 33 19 33H3C1.89543 33 1 32.1046 1 31V21C1 19.8954 1.89543 19 3 19M7 37H15M11 33V37M15 5C15 7.20914 13.2091 9 11 9C8.79086 9 7 7.20914 7 5C7 2.79086 8.79086 1 11 1C13.2091 1 15 2.79086 15 5Z" stroke="#101828" stroke-width="2" stroke-linecap="round" stroke-linejoin="round"/>
</svg>
